<?xml version="1.0" encoding="UTF-8"?><svg id="uuid-f6ee061d-59c9-41b9-8a59-2950cec4fdba" xmlns="http://www.w3.org/2000/svg" width="25" height="25" viewBox="0 0 25 25"><defs><style>.uuid-739f2a15-6b40-4cf8-88f7-1bfd7ef4d5ed{fill:#ee7623;}.uuid-739f2a15-6b40-4cf8-88f7-1bfd7ef4d5ed,.uuid-800e9eff-586a-4224-8470-1c5ca897f808{stroke-width:0px;}.uuid-800e9eff-586a-4224-8470-1c5ca897f808{fill:#fff;}</style></defs><circle class="uuid-739f2a15-6b40-4cf8-88f7-1bfd7ef4d5ed" cx="12.5" cy="12.5" r="11.2"/><path class="uuid-800e9eff-586a-4224-8470-1c5ca897f808" d="m15.3,5.9h-5.6c-.5,0-1,.4-1,1v11.3c0,.5.4,1,1,1h5.6c.5,0,1-.4,1-1V6.8c0-.5-.4-1-1-1Zm-4.2.6h2.8c0,0,.1.1.1.2s0,.2-.1.2h-2.8c0,0-.1-.1-.1-.2,0-.1,0-.2.1-.2Zm1.4,11.7c-.3,0-.6-.3-.6-.6s.3-.6.6-.6.6.3.6.6-.3.6-.6.6Zm3-2.1h-6.1V7.5h6.1v8.6Z"/></svg>