<?xml version="1.0" encoding="UTF-8"?><svg id="uuid-6b1e6ffc-2ca0-40ec-affd-31c5ee6b6d5f" xmlns="http://www.w3.org/2000/svg" width="25" height="25" viewBox="0 0 25 25"><defs><style>.uuid-3752e36b-8f19-4323-86a9-6682a66b41e0{fill:#fff;fill-rule:evenodd;}.uuid-3752e36b-8f19-4323-86a9-6682a66b41e0,.uuid-9d673cf2-59ea-4e39-81e5-a61c0a16dcde{stroke-width:0px;}.uuid-9d673cf2-59ea-4e39-81e5-a61c0a16dcde{fill:#ee7623;}</style></defs><circle class="uuid-9d673cf2-59ea-4e39-81e5-a61c0a16dcde" cx="12.5" cy="12.5" r="11.2"/><path class="uuid-3752e36b-8f19-4323-86a9-6682a66b41e0" d="m15.5,6.1v2.2c-.4,0-.9,0-1.3,0-.2,0-.3,0-.5.1-.1,0-.2.2-.2.4,0,.5,0,.9,0,1.4h2c0,.8-.2,1.5-.2,2.2h-1.8v6.4h-2.7v-6.4h-1.2v-2.2h1.2c0-.5,0-.9,0-1.4,0-.4,0-.9.2-1.3.3-.8.9-1.3,1.8-1.4.9,0,1.7,0,2.6,0Z"/></svg>