<?xml version="1.0" encoding="UTF-8"?><svg id="uuid-47714dad-f5cc-4147-9ddd-ee3215f587e0" xmlns="http://www.w3.org/2000/svg" width="25" height="25" viewBox="0 0 25 25"><defs><style>.uuid-a4b5f6e5-0267-4bc6-bf6c-4908c656a6f1{fill:#ee7623;}.uuid-a4b5f6e5-0267-4bc6-bf6c-4908c656a6f1,.uuid-f7b2fb26-051a-4403-9a7d-73d8d992e55e{stroke-width:0px;}.uuid-f7b2fb26-051a-4403-9a7d-73d8d992e55e{fill:#fff;}</style></defs><circle class="uuid-a4b5f6e5-0267-4bc6-bf6c-4908c656a6f1" cx="12.5" cy="12.5" r="11.2"/><path class="uuid-f7b2fb26-051a-4403-9a7d-73d8d992e55e" d="m15,6.5h-5c-1.9,0-3.5,1.6-3.5,3.5v5c0,1.9,1.6,3.5,3.5,3.5h5c1.9,0,3.5-1.6,3.5-3.5v-5c0-1.9-1.6-3.5-3.5-3.5Zm2.5,8.5c0,1.4-1.1,2.5-2.5,2.5h-5c-1.4,0-2.5-1.1-2.5-2.5v-5c0-1.4,1.1-2.5,2.5-2.5h5c1.4,0,2.5,1.1,2.5,2.5v5Z"/><path class="uuid-f7b2fb26-051a-4403-9a7d-73d8d992e55e" d="m12.5,9.3c-1.8,0-3.2,1.4-3.2,3.2s1.4,3.2,3.2,3.2,3.2-1.4,3.2-3.2-1.4-3.2-3.2-3.2Zm0,5.5c-1.3,0-2.3-1-2.3-2.3s1-2.3,2.3-2.3,2.3,1,2.3,2.3-1,2.3-2.3,2.3Z"/><circle class="uuid-f7b2fb26-051a-4403-9a7d-73d8d992e55e" cx="15.8" cy="9.2" r=".5"/></svg>