<?xml version="1.0" encoding="UTF-8"?><svg id="uuid-1a284377-0289-4984-992d-4181a7f8dec2" xmlns="http://www.w3.org/2000/svg" width="25" height="25" viewBox="0 0 25 25"><defs><style>.uuid-dc221a76-03df-4417-b8a6-a64a79abae33{fill:#fff;fill-rule:evenodd;}.uuid-dc221a76-03df-4417-b8a6-a64a79abae33,.uuid-43ac97d3-5f5f-4d71-9428-81ea8c9ac15d{stroke-width:0px;}.uuid-43ac97d3-5f5f-4d71-9428-81ea8c9ac15d{fill:#ee7623;}</style></defs><circle class="uuid-43ac97d3-5f5f-4d71-9428-81ea8c9ac15d" cx="12.5" cy="12.5" r="11.2"/><g id="uuid-cd33f726-14ed-4001-b2af-fcb13839770d"><path class="uuid-dc221a76-03df-4417-b8a6-a64a79abae33" d="m13.7,10.1v1s0,0,0,0c0,0,0,0,0,0,.1-.2.3-.3.4-.5.3-.3.7-.5,1.1-.6.3,0,.6,0,.9,0,.3,0,.6.1.8.2.5.2.8.6,1.1,1,.2.3.2.6.3.9,0,.3,0,.6,0,1,0,1.3,0,2.6,0,3.9h0c-.8,0-1.5,0-2.3,0,0,0,0,0,0,0,0,0,0,0,0,0v-3.7c0-.2,0-.4,0-.6,0-.2,0-.3-.2-.5-.2-.3-.4-.5-.8-.5-.2,0-.4,0-.6,0-.3.1-.5.3-.6.5,0,.1-.2.3-.2.4,0,.1,0,.2,0,.3v3.9h0c0,0,0,0,0,0,0,0,0,0,0,0,0,0,0,0,0,0-.8,0-1.5,0-2.3,0,0,0,0,0,0,0,0-2.3,0-4.6,0-6.9,0,0,0,0,0,0,0,0,0,0,0,0,.8,0,1.5,0,2.3,0,0,0,0,0,0,0Z"/><path class="uuid-dc221a76-03df-4417-b8a6-a64a79abae33" d="m7.8,10.1h2.3v7h-2.3v-7Z"/><path class="uuid-dc221a76-03df-4417-b8a6-a64a79abae33" d="m9,6.7c.2,0,.4,0,.6.1.4.2.6.4.7.8,0,.3,0,.5,0,.8-.1.3-.4.5-.7.6-.2,0-.4,0-.6,0-.2,0-.4,0-.5-.1-.4-.2-.6-.5-.6-.9,0-.3,0-.5.1-.8.2-.3.4-.4.7-.5.1,0,.3,0,.4,0Z"/></g></svg>