<?xml version="1.0" encoding="UTF-8"?><svg id="uuid-3f5e24a8-77b8-4fb4-93f5-1d250e40aa3a" xmlns="http://www.w3.org/2000/svg" width="25" height="25" viewBox="0 0 25 25"><defs><style>.uuid-2022b347-cd88-432f-852f-5f374b485d18{fill:#ee7623;}.uuid-2022b347-cd88-432f-852f-5f374b485d18,.uuid-793c546a-45ec-470e-adf3-50ff0d0e94b8{stroke-width:0px;}.uuid-793c546a-45ec-470e-adf3-50ff0d0e94b8{fill:#fff;}</style></defs><circle class="uuid-2022b347-cd88-432f-852f-5f374b485d18" cx="12.5" cy="12.5" r="11.2"/><path class="uuid-793c546a-45ec-470e-adf3-50ff0d0e94b8" d="m16.5,8.1c-.8-1.4-2.3-2.3-3.9-2.3,0,0-.1,0-.2,0-1.6,0-3.1.9-3.9,2.3-.8,1.4-.9,3.2,0,4.6l3.3,6.1s0,0,0,0c.1.3.4.4.7.4s.6-.2.7-.4c0,0,0,0,0,0l3.3-6.1c.8-1.5.8-3.2,0-4.6h0Zm-4,3.8c-1,0-1.9-.8-1.9-1.9s.8-1.9,1.9-1.9,1.9.8,1.9,1.9-.8,1.9-1.9,1.9Z"/></svg>