<?xml version="1.0" encoding="UTF-8"?><svg id="uuid-679ce7a2-4073-4316-b798-3249e5fbe443" xmlns="http://www.w3.org/2000/svg" width="199.9" height="195.2" viewBox="0 0 199.9 195.2"><defs><style>.uuid-a61dbc2a-1ed6-4d35-97b9-1b7f86533242{fill-rule:evenodd;}.uuid-a61dbc2a-1ed6-4d35-97b9-1b7f86533242,.uuid-4446ef78-8fe0-4ea0-ae19-91454a84b798,.uuid-46a00c22-8496-486d-993f-9ef467770956,.uuid-4560137d-4cbb-4251-a03d-7972b62b2af1,.uuid-5050c310-c0fc-426f-b5af-73bb6c5327de{stroke-width:0px;}.uuid-a61dbc2a-1ed6-4d35-97b9-1b7f86533242,.uuid-5050c310-c0fc-426f-b5af-73bb6c5327de{fill:#002856;}.uuid-4446ef78-8fe0-4ea0-ae19-91454a84b798{fill:#65757e;}.uuid-46a00c22-8496-486d-993f-9ef467770956{fill:#ee7623;}.uuid-4560137d-4cbb-4251-a03d-7972b62b2af1{fill:#fff;}</style></defs><path class="uuid-a61dbc2a-1ed6-4d35-97b9-1b7f86533242" d="m181.9,56.1c-4.9,1.6-8.6,2.7-13.8,3.7-.9-1.1-2.2-1.8-1-3.4-2.7-2.2-5.2-4.7-8.4-6.4-.1-4.6-5.2-4.2-4.4-9.8-.8-1.3-1.5-2.8-3-3.4.2-2.9-3.8-5.6-3.7-8.4,2.2-.3,1.6-5.2.3-7.1-4.9,0-9.1,1.1-14.8,0-.9-1.7-3.7-1.5-4.7-3-1.7.2-2.8,1-4,1.7-.2.9.4,2.7-.3,3-2.5-.3-3.4-2.2-6-2.4-.4-.4-.4-1.2-.3-2-2.5-1.4-6.5-1.4-7.7-4,2.9-1,.6-3.8,2.4-5.7-1.2.7-1.3,0-1.7-1-3.5.8-7.1-.5-9.4-1-6.8-1.4-12.4,2.9-15.8-2.7-2.4,4.3-11.2,2.3-11.1,9.1-1.8,1.5-4.6,2.9-7.7,2-1.2,1.2-2.5,2.4-4.7,2.7-2.1,4.6-8.2,5.3-9.7,10.4.5.6,1.3,1,1.3,2-1.7,4.6-1.8,10.7-6.7,12.1,2,1.4,1.2,4.7.3,6.7,3.2,4.2,8.1,8.3,8.1,13.8,2.1.7,5.2,2.6,7.1,4.7.2.3,0,1.1.3,1.3,4.9,3.7,10.8-1.9,16.8,1.7,3.9-1.5,7.3-3.4,13.1-3,1.2,1.2,1.7,3,2.7,4.4,9-3.1,8.8,6.2,5.7,10.1,2.7,5.2,7.5,8.2,9.1,14.5-1.1,1.5,0,2.7.7,4.3,2.8-1.4,6-2.3,9.4-2.3,9.5,0,17.5,6.3,20.1,15,.6,2,.9,4.1.9,6.2,0,11.1-8.7,20.3-19.7,20.9,0,1.5.6,2.5.6,3.9,3.1,3.3,6.5-1.7,10.8,0,6.7-2.7,12.7-8,13.1-15.8,5.3-.6,6.3-6.1,4-10.4,2.5-4.3,10.9-4.5,11.8-10.1.3-2-.8-5.6-.3-8.1-2.1-1.4-2-4.4-1.7-6.7-.2-.8-1.3-.7-1-2,.6-2,2-3.1,2.4-5.4,1.1-.4,1.5-1.5,2.7-1.7,3.9-7.7,14-9.1,15.5-19.2,2.3-1.8,2.8-5.3,2.7-9.4Z"/><path class="uuid-4560137d-4cbb-4251-a03d-7972b62b2af1" d="m102.1,24.3c-2.4-.6-4.8-1-7.3-1.3l-.3,2.8c2.4.3,4.7.7,6.9,1.3l.7-2.8Z"/><path class="uuid-4560137d-4cbb-4251-a03d-7972b62b2af1" d="m87.2,25.3c1,0,2,0,3,0v-2.8c-.9,0-1.9,0-3,0s-2.9,0-4.3.1l.2,2.8c1.3,0,2.7-.1,4.1-.1Z"/><path class="uuid-4560137d-4cbb-4251-a03d-7972b62b2af1" d="m148.7,77.6l-2.8.3c.2,2.1.3,4.1.3,6.2s0,.5,0,.8h2.8c0-.2,0-.5,0-.8,0-2.2-.1-4.4-.3-6.5Z"/><path class="uuid-4560137d-4cbb-4251-a03d-7972b62b2af1" d="m130.2,43.9l2.1-1.9c-1.7-1.8-3.5-3.5-5.4-5.1l-1.8,2.2c1.8,1.5,3.5,3.1,5.1,4.8Z"/><path class="uuid-4560137d-4cbb-4251-a03d-7972b62b2af1" d="m113.2,28.2c-2.2-1-4.5-1.9-6.9-2.7l-.9,2.7c2.3.7,4.4,1.6,6.6,2.6l1.2-2.6Z"/><path class="uuid-4560137d-4cbb-4251-a03d-7972b62b2af1" d="m123.4,34.1c-2-1.4-4.1-2.8-6.2-4l-1.4,2.5c2.1,1.1,4.1,2.4,5.9,3.8l1.7-2.3Z"/><path class="uuid-4560137d-4cbb-4251-a03d-7972b62b2af1" d="m139.5,51.3c-1.3-2.1-2.8-4.1-4.3-6l-2.2,1.8c1.5,1.8,2.9,3.7,4.1,5.7l2.4-1.5Z"/><path class="uuid-4560137d-4cbb-4251-a03d-7972b62b2af1" d="m142.2,62.9l2.7-1c-.9-2.3-1.9-4.5-3.1-6.7l-2.5,1.3c1.1,2.1,2.1,4.2,2.9,6.4Z"/><path class="uuid-4560137d-4cbb-4251-a03d-7972b62b2af1" d="m145.2,73.7l2.8-.5c-.4-2.4-1-4.8-1.7-7.2l-2.7.8c.7,2.2,1.2,4.5,1.7,6.8Z"/><path class="uuid-4560137d-4cbb-4251-a03d-7972b62b2af1" d="m144.9,96.1l2.8.6c.5-2.4.8-4.8,1.1-7.3l-2.8-.2c-.2,2.4-.5,4.7-1,7Z"/><path class="uuid-4560137d-4cbb-4251-a03d-7972b62b2af1" d="m141.6,106.9l2.6,1.1c.9-2.3,1.8-4.6,2.4-7l-2.7-.8c-.6,2.3-1.4,4.5-2.3,6.7Z"/><path class="uuid-46a00c22-8496-486d-993f-9ef467770956" d="m131.5,73.8c-1-2.3-2.1-4.5-3.3-6.6l-2.5,1.4c1.2,2,2.2,4.1,3.2,6.3l2.6-1.1Z"/><path class="uuid-5050c310-c0fc-426f-b5af-73bb6c5327de" d="m74.8,42.5l-.2-2.8c-2.5.2-4.9.6-7.3,1.1l.6,2.8c2.3-.5,4.6-.9,6.9-1.1Z"/><path class="uuid-46a00c22-8496-486d-993f-9ef467770956" d="m135,85.1c-.5-2.4-1.1-4.8-1.9-7.1l-2.7.9c.7,2.2,1.3,4.5,1.8,6.8l2.8-.5Z"/><path class="uuid-46a00c22-8496-486d-993f-9ef467770956" d="m118,54.6c-1.8-1.7-3.7-3.2-5.7-4.7l-1.7,2.3c1.9,1.4,3.7,2.8,5.4,4.4l1.9-2.1Z"/><path class="uuid-46a00c22-8496-486d-993f-9ef467770956" d="m125.8,63.5c-1.4-2-3-3.9-4.6-5.8l-2.1,1.9c1.6,1.7,3.1,3.6,4.4,5.5l2.3-1.6Z"/><path class="uuid-46a00c22-8496-486d-993f-9ef467770956" d="m108.6,47.5c-2.1-1.3-4.3-2.4-6.6-3.4l-1.1,2.6c2.2.9,4.2,2,6.2,3.2l1.5-2.4Z"/><path class="uuid-46a00c22-8496-486d-993f-9ef467770956" d="m99.1,42.7c-2.3-.8-4.7-1.5-7.1-2.1l-.6,2.8c2.3.5,4.6,1.2,6.7,2l1-2.7Z"/><path class="uuid-46a00c22-8496-486d-993f-9ef467770956" d="m136,95.9c0-2.2-.1-4.3-.4-6.4l-2.8.3c.2,2,.3,4,.3,6.1s0,.6,0,.9h2.8c0-.3,0-.6,0-.9Z"/><path class="uuid-5050c310-c0fc-426f-b5af-73bb6c5327de" d="m79,42.3c.1,0,.3,0,.4,0,1.8,0,3.5,0,5.3.3.4,0,.8,0,1.2.1l.3-2.8c-.4,0-.9-.1-1.3-.1-1.9-.2-3.7-.3-5.6-.3s-.3,0-.5,0v2.8Z"/><path class="uuid-4560137d-4cbb-4251-a03d-7972b62b2af1" d="m79.1,59.5l.2-2.8c-1.4-.1-2.9-.2-4.3-.2s-2.1,0-3.1,0l.2,2.8c1,0,2,0,3,0s2.7,0,4.1.2Z"/><path class="uuid-4560137d-4cbb-4251-a03d-7972b62b2af1" d="m111.1,71.3c-1.8-1.7-3.6-3.4-5.7-4.9l-1.7,2.3c1.9,1.4,3.7,2.9,5.3,4.6l2-2Z"/><path class="uuid-4560137d-4cbb-4251-a03d-7972b62b2af1" d="m123.6,91.4c-.8-2.4-1.8-4.7-2.9-6.9l-2.5,1.3c1.1,2.1,2,4.2,2.7,6.5l2.7-.9Z"/><path class="uuid-4560137d-4cbb-4251-a03d-7972b62b2af1" d="m91,59c-2.3-.8-4.8-1.4-7.2-1.8l-.5,2.8c2.3.4,4.6,1,6.8,1.7l.9-2.7Z"/><path class="uuid-4560137d-4cbb-4251-a03d-7972b62b2af1" d="m101.8,64c-2.1-1.3-4.3-2.4-6.6-3.4l-1.1,2.6c2.2.9,4.3,2,6.2,3.2l1.5-2.4Z"/><path class="uuid-4560137d-4cbb-4251-a03d-7972b62b2af1" d="m118.5,80.6c-1.3-2.1-2.8-4.1-4.4-6l-2.2,1.8c1.5,1.8,2.9,3.7,4.1,5.7l2.4-1.5Z"/><path class="uuid-4560137d-4cbb-4251-a03d-7972b62b2af1" d="m125.6,99.7c-.2-1.3-.5-2.7-.8-4l-2.8.7c.2.9.4,1.8.6,2.7,1,.1,2,.3,3,.6Z"/><path class="uuid-46a00c22-8496-486d-993f-9ef467770956" d="m135.2,105.2c.2-1.2.4-2.5.5-3.7v-.2s-2.8-.3-2.8-.3v.2c0,.6-.2,1.2-.2,1.8.9.7,1.8,1.4,2.5,2.2Z"/><path class="uuid-4560137d-4cbb-4251-a03d-7972b62b2af1" d="m140.5,115.5c.7-1.1,1.3-2.3,1.9-3.4l-2.5-1.3c-.2.4-.4.7-.6,1.1.5,1.2.9,2.4,1.2,3.7Z"/><path class="uuid-46a00c22-8496-486d-993f-9ef467770956" d="m119.5,102.9c-7.9,0-14.5,5.2-16.7,12.4h1.9c2.1-6.2,8-10.6,14.8-10.6,4.3,0,8.3,1.8,11.1,4.6,2.8,2.8,4.6,6.8,4.6,11.1,0,4.3-1.8,8.3-4.6,11.1-2.8,2.8-6.8,4.6-11.1,4.6-6,0-11.2-3.4-13.9-8.4h-2c2.8,6,8.8,10.1,15.9,10.1,9.7,0,17.5-7.8,17.5-17.5,0-9.7-7.8-17.5-17.5-17.5Z"/><path class="uuid-46a00c22-8496-486d-993f-9ef467770956" d="m119.5,138.1c-6.8,0-13.1-4-16-10.3v-.3c-.1,0,2.2,0,2.2,0h0c2.7,5.2,8,8.4,13.7,8.4h0c4.2,0,8.1-1.6,11-4.6,2.9-2.9,4.5-6.8,4.6-11,0-4.2-1.6-8.1-4.6-11-2.9-2.9-6.8-4.6-11-4.6h0c-6.6,0-12.5,4.2-14.7,10.5h0c0,.1-2.2.1-2.2.1v-.2c2.4-7.5,9.1-12.5,16.9-12.5h0c9.7,0,17.7,7.9,17.7,17.7,0,9.7-7.9,17.7-17.7,17.7Zm-15.6-10.1c2.9,6,9,9.8,15.6,9.8,9.5,0,17.3-7.8,17.3-17.3,0-9.6-7.8-17.3-17.3-17.3-7.6,0-14.2,4.8-16.5,12h1.5c2.2-6.4,8.2-10.6,15-10.6h0c4.2,0,8.2,1.7,11.2,4.7,3,3,4.7,7,4.7,11.2,0,4.2-1.7,8.2-4.7,11.2-3,3-7,4.7-11.2,4.7h0c-5.9,0-11.2-3.2-14-8.4h-1.6Z"/><path class="uuid-5050c310-c0fc-426f-b5af-73bb6c5327de" d="m29.5,102.9h-8.4l-1.5,3.4h-1.5l6.5-14.6h1.5l6.5,14.6h-1.5l-1.5-3.4Zm-7.9-1.3h7.3l-3.6-8.3-3.6,8.3Z"/><path class="uuid-5050c310-c0fc-426f-b5af-73bb6c5327de" d="m34.4,106.3v-14.6h10v1.4h-8.5v5.5h8.2v1.4h-8.2v6.3h-1.5Z"/><path class="uuid-5050c310-c0fc-426f-b5af-73bb6c5327de" d="m58.9,106.3h-1.9l-4.8-5.4h-3.8v5.4h-1.5v-14.6h6.5c3.2,0,4.8,2.2,4.8,4.6,0,2.3-1.3,4.3-4.4,4.5l5,5.5Zm-10.5-13.2v6.5h5c2.3,0,3.5-1.4,3.5-3.2s-1.1-3.2-3.4-3.2h-5.1Z"/><path class="uuid-5050c310-c0fc-426f-b5af-73bb6c5327de" d="m61.2,106.3v-14.6h1.5v14.6h-1.5Z"/><path class="uuid-5050c310-c0fc-426f-b5af-73bb6c5327de" d="m78.1,104.3c-1.5,1.5-3.4,2.2-5.3,2.2-5,0-7.6-3.4-7.6-7.4,0-4,2.5-7.6,7.6-7.6s3.9.7,5.2,2.2l-.9.9c-1.2-1.2-2.7-1.7-4.3-1.7-4.1,0-6.1,3-6.1,6.2s2.1,6.1,6.1,6.1,3.2-.6,4.4-1.8l.9.9Z"/><path class="uuid-5050c310-c0fc-426f-b5af-73bb6c5327de" d="m90.2,102.9h-8.4l-1.5,3.4h-1.5l6.5-14.6h1.5l6.5,14.6h-1.5l-1.5-3.4Zm-7.9-1.3h7.3l-3.6-8.3-3.6,8.3Z"/><path class="uuid-5050c310-c0fc-426f-b5af-73bb6c5327de" d="m32,116.2c-1.2-1.2-3.2-1.8-4.8-1.8s-3.7.9-3.7,2.3,1.8,2.3,4.5,2.5c4.1.4,8,1.9,8,6.8s-4.3,6.7-8.8,6.7c-3.6,0-7.4-1.4-9.1-4.3l2.8-2.9c1.6,2.1,4.3,3,6.4,3s4.2-1,4.2-2.5c0-1.8-1.4-2.6-4.2-2.8-4.4-.4-8.3-1.5-8.3-6.4,0-4.1,4-6.4,8.3-6.4s5.6.7,7.8,3.2l-2.9,2.6Z"/><path class="uuid-5050c310-c0fc-426f-b5af-73bb6c5327de" d="m52.9,128.5h-10.7l-1.5,3.6h-5l9.4-20.9h5.1l9.4,20.9h-5l-1.5-3.6Zm-5.3-12.6l-3.6,8.5h7.2l-3.6-8.5Z"/><path class="uuid-5050c310-c0fc-426f-b5af-73bb6c5327de" d="m60.9,132.1v-20.8h15.2v4.3h-10.6v5h9.9v4.1h-9.9v7.5h-4.7Z"/><path class="uuid-5050c310-c0fc-426f-b5af-73bb6c5327de" d="m94.7,132.1h-15.9v-20.9h15.5v4.3h-10.9v4h10.3v4.1h-10.3v4.2h11.3v4.3Z"/><path class="uuid-5050c310-c0fc-426f-b5af-73bb6c5327de" d="m98.8,119.5h11.2v4h-11.2v-4Z"/><path class="uuid-5050c310-c0fc-426f-b5af-73bb6c5327de" d="m117.1,115.3h-6.4v-4.1h17.3v4.1h-6.4v16.7h-4.6v-16.7Z"/><polygon class="uuid-4560137d-4cbb-4251-a03d-7972b62b2af1" points="80.7 35.9 80.7 22.1 68.1 22.1 68.1 35.9 56.3 35.9 56.3 48 68.1 48 68.1 61.8 80.7 61.8 80.7 48 92.8 48 92.8 35.9 80.7 35.9"/><path class="uuid-5050c310-c0fc-426f-b5af-73bb6c5327de" d="m81.4,62.5h-14.1v-13.8h-11.8v-13.5h11.8v-13.8h14.1v13.8h12.1v13.5h-12.1v13.8Zm-12.6-1.4h11.2v-13.8h12.1v-10.6h-12.1v-13.8h-11.2v13.8h-11.8v10.6h11.8v13.8Z"/><path class="uuid-4446ef78-8fe0-4ea0-ae19-91454a84b798" d="m8.8,165.2c-.4-.1-.8-.2-1.1-.2s-.8,0-1.1.3c-.3.2-.4.4-.4.7s0,.5.3.7.4.3.6.4c.2.1.6.2,1,.4.5.2,1,.3,1.3.5.3.2.6.4.9.7s.4.7.4,1.2-.1.9-.4,1.2c-.2.3-.6.6-1,.8-.4.2-1,.3-1.5.3s-1.2-.1-1.7-.3-1-.5-1.4-.9l.5-.9c.4.4.8.7,1.3.9s.9.3,1.4.3,1-.1,1.3-.3c.3-.2.5-.5.5-.9s0-.5-.3-.7c-.2-.2-.4-.3-.6-.4-.3-.1-.6-.2-1-.4-.5-.2-1-.3-1.3-.5s-.6-.4-.9-.7c-.2-.3-.3-.7-.3-1.2s.1-.8.4-1.1c.2-.3.6-.6,1-.8.4-.2.9-.3,1.5-.3s1,0,1.4.2.9.3,1.2.6l-.5,1c-.4-.2-.8-.4-1.2-.5Z"/><path class="uuid-4446ef78-8fe0-4ea0-ae19-91454a84b798" d="m18.4,172.1l-.8-1.9h-4.2l-.8,1.9h-1.2l3.6-8h1.1l3.5,8h-1.2Zm-4.6-2.9h3.4l-1.7-3.9-1.7,3.9Z"/><path class="uuid-4446ef78-8fe0-4ea0-ae19-91454a84b798" d="m21,164.1h5.2v1h-4.1v2.6h3.7v1h-3.7v3.4h-1.1v-8Z"/><path class="uuid-4446ef78-8fe0-4ea0-ae19-91454a84b798" d="m33.4,172.1l-.8-1.9h-4.2l-.8,1.9h-1.2l3.6-8h1.1l3.5,8h-1.2Zm-4.6-2.9h3.4l-1.7-3.9-1.7,3.9Z"/><path class="uuid-4446ef78-8fe0-4ea0-ae19-91454a84b798" d="m41.1,172.1l-1.6-2.5c-.2,0-.3,0-.4,0h-2v2.5h-1.1v-8h3.1c1,0,1.8.2,2.4.7.6.5.8,1.1.8,2s-.2,1.2-.5,1.6c-.3.4-.7.8-1.3,1l1.9,2.7h-1.3Zm-2-3.5c.7,0,1.2-.2,1.6-.5.4-.3.5-.7.5-1.3s-.2-1-.5-1.3-.9-.4-1.6-.4h-2v3.5h2Z"/><path class="uuid-4446ef78-8fe0-4ea0-ae19-91454a84b798" d="m44.5,164.1h1.1v8h-1.1v-8Z"/><path class="uuid-4446ef78-8fe0-4ea0-ae19-91454a84b798" d="m57,172.3l-1.3-1.3c-.4.4-.7.7-1.2.9-.4.2-.8.3-1.3.3s-.9,0-1.2-.3c-.4-.2-.7-.5-.9-.8-.2-.3-.3-.7-.3-1.1s.2-.9.5-1.3c.3-.3.8-.7,1.3-1-.3-.4-.5-.7-.6-1-.1-.3-.2-.6-.2-.9,0-.5.2-.9.6-1.3.4-.3.9-.5,1.5-.5s1,.2,1.4.5c.4.3.5.7.5,1.2s0,.6-.3.9-.4.5-.7.7-.6.4-1,.6c.4.4,1,1.1,1.8,1.9.3-.5.6-1,.8-1.5l.7.5c-.2.6-.5,1.1-.9,1.6l1.3,1.3-.6.6Zm-1.9-1.9c-.9-.9-1.6-1.6-2.1-2.2-.4.2-.8.5-1,.7s-.3.5-.3.9.2.8.5,1.1c.3.3.7.4,1.1.4.6,0,1.2-.3,1.8-.9Zm-1.8-3.1c.5-.3.9-.5,1.2-.8.3-.2.4-.5.4-.9s0-.5-.3-.7c-.2-.2-.4-.3-.8-.3s-.6.1-.8.3c-.2.2-.3.5-.3.8s.2.9.7,1.5Z"/><path class="uuid-4446ef78-8fe0-4ea0-ae19-91454a84b798" d="m68.2,172.1l-.8-1.9h-4.2l-.8,1.9h-1.2l3.6-8h1.1l3.5,8h-1.2Zm-4.6-2.9h3.4l-1.7-3.9-1.7,3.9Z"/><path class="uuid-4446ef78-8fe0-4ea0-ae19-91454a84b798" d="m76.1,164.6c.6.3,1.1.8,1.5,1.4.4.6.5,1.3.5,2s-.2,1.4-.5,2c-.4.6-.9,1.1-1.5,1.4-.6.3-1.3.5-2.1.5h-3.2v-8h3.3c.8,0,1.5.2,2.1.5Zm-.6,6.1c.5-.3.8-.6,1.1-1.1.3-.5.4-1,.4-1.5s-.1-1.1-.4-1.5c-.3-.5-.6-.8-1.1-1.1s-1-.4-1.5-.4h-2.1v6h2.2c.6,0,1.1-.1,1.5-.4Z"/><path class="uuid-4446ef78-8fe0-4ea0-ae19-91454a84b798" d="m78.8,164.1h1.2l2.6,6.8,2.6-6.8h1.2l-3.2,8h-1.1l-3.2-8Z"/><path class="uuid-4446ef78-8fe0-4ea0-ae19-91454a84b798" d="m87.8,164.1h5.6v1h-4.5v2.5h4v1h-4v2.6h4.6v1h-5.7v-8Z"/><path class="uuid-4446ef78-8fe0-4ea0-ae19-91454a84b798" d="m101.2,164.1h1.1v8h-1.1l-4.6-6.2v6.2h-1.1v-8h1.1l4.6,6.2v-6.2Z"/><path class="uuid-4446ef78-8fe0-4ea0-ae19-91454a84b798" d="m103.8,164.1h6.3v1h-2.6v7h-1.1v-7h-2.6v-1Z"/><path class="uuid-4446ef78-8fe0-4ea0-ae19-91454a84b798" d="m113.1,170.6c.4.4,1,.6,1.7.6s1.3-.2,1.7-.6c.4-.4.6-1,.6-1.7v-4.7h1.1v4.7c0,1-.3,1.9-.9,2.5-.6.6-1.4.9-2.5.9s-1.9-.3-2.5-.9c-.6-.6-.9-1.4-.9-2.5v-4.7h1.1v4.7c0,.7.2,1.3.6,1.7Z"/><path class="uuid-4446ef78-8fe0-4ea0-ae19-91454a84b798" d="m125.7,172.1l-1.6-2.5c-.2,0-.3,0-.4,0h-2v2.5h-1.1v-8h3.1c1,0,1.8.2,2.4.7.6.5.8,1.1.8,2s-.2,1.2-.5,1.6-.7.8-1.3,1l1.9,2.7h-1.3Zm-2-3.5c.7,0,1.2-.2,1.6-.5s.5-.7.5-1.3-.2-1-.5-1.3-.9-.4-1.6-.4h-2v3.5h2Z"/><path class="uuid-4446ef78-8fe0-4ea0-ae19-91454a84b798" d="m129,164.1h5.6v1h-4.5v2.5h4v1h-4v2.6h4.6v1h-5.7v-8Z"/><path class="uuid-4446ef78-8fe0-4ea0-ae19-91454a84b798" d="m139.9,164.1h5.2v1h-4.1v2.6h3.7v1h-3.7v3.4h-1.1v-8Z"/><path class="uuid-4446ef78-8fe0-4ea0-ae19-91454a84b798" d="m152.3,164.6c.6.4,1.2.8,1.5,1.5s.6,1.3.6,2.1-.2,1.4-.6,2.1c-.4.6-.9,1.1-1.5,1.5-.6.4-1.4.5-2.1.5s-1.5-.2-2.1-.5c-.6-.4-1.2-.9-1.5-1.5-.4-.6-.6-1.3-.6-2.1s.2-1.4.6-2.1.9-1.1,1.5-1.5c.6-.4,1.3-.5,2.1-.5s1.5.2,2.1.5Zm-3.7.9c-.5.3-.9.6-1.1,1.1-.3.5-.4,1-.4,1.6s.1,1.1.4,1.6c.3.5.7.8,1.1,1.1.5.3,1,.4,1.5.4s1.1-.1,1.5-.4c.5-.3.8-.7,1.1-1.1.3-.5.4-1,.4-1.6s-.1-1.1-.4-1.6c-.3-.5-.7-.8-1.1-1.1s-1-.4-1.5-.4-1.1.1-1.5.4Z"/><path class="uuid-4446ef78-8fe0-4ea0-ae19-91454a84b798" d="m160.6,165.3c-.4-.2-.8-.3-1.2-.3s-1.1.1-1.6.4c-.5.3-.8.6-1.1,1.1-.3.5-.4,1-.4,1.5s.1,1.1.4,1.5c.3.5.6.8,1.1,1.1.5.3,1,.4,1.6.4s.8,0,1.2-.3c.4-.2.8-.4,1.1-.7l.7.7c-.4.4-.9.7-1.4.9-.5.2-1.1.3-1.6.3s-1.5-.2-2.1-.5c-.6-.4-1.1-.9-1.5-1.5-.4-.6-.5-1.3-.5-2.1s.2-1.4.6-2.1c.4-.6.9-1.1,1.5-1.5.6-.4,1.3-.5,2.1-.5s1.1.1,1.6.3c.5.2,1,.5,1.4.9l-.7.8c-.3-.3-.7-.6-1.1-.7Z"/><path class="uuid-4446ef78-8fe0-4ea0-ae19-91454a84b798" d="m165.7,170.6c.4.4,1,.6,1.7.6s1.3-.2,1.7-.6c.4-.4.6-1,.6-1.7v-4.7h1.1v4.7c0,1-.3,1.9-.9,2.5-.6.6-1.4.9-2.5.9s-1.9-.3-2.5-.9c-.6-.6-.9-1.4-.9-2.5v-4.7h1.1v4.7c0,.7.2,1.3.6,1.7Z"/><path class="uuid-4446ef78-8fe0-4ea0-ae19-91454a84b798" d="m176.6,165.2c-.4-.1-.8-.2-1.1-.2s-.8,0-1.1.3c-.3.2-.4.4-.4.7s0,.5.3.7.4.3.6.4c.2.1.6.2,1,.4.5.2,1,.3,1.3.5.3.2.6.4.9.7s.4.7.4,1.2-.1.9-.4,1.2c-.2.3-.6.6-1,.8-.4.2-1,.3-1.5.3s-1.2-.1-1.7-.3-1-.5-1.4-.9l.5-.9c.4.4.8.7,1.3.9s.9.3,1.4.3,1-.1,1.3-.3c.3-.2.5-.5.5-.9s0-.5-.3-.7c-.2-.2-.4-.3-.6-.4-.3-.1-.6-.2-1-.4-.5-.2-1-.3-1.3-.5s-.6-.4-.9-.7c-.2-.3-.3-.7-.3-1.2s.1-.8.4-1.1c.2-.3.6-.6,1-.8.4-.2.9-.3,1.5-.3s1,0,1.4.2.9.3,1.2.6l-.5,1c-.4-.2-.8-.4-1.2-.5Z"/><path class="uuid-4446ef78-8fe0-4ea0-ae19-91454a84b798" d="m180.3,164.1h5.6v1h-4.5v2.5h4v1h-4v2.6h4.6v1h-5.7v-8Z"/><path class="uuid-4446ef78-8fe0-4ea0-ae19-91454a84b798" d="m193.4,164.6c.6.3,1.1.8,1.5,1.4.4.6.5,1.3.5,2s-.2,1.4-.5,2c-.4.6-.9,1.1-1.5,1.4-.6.3-1.3.5-2.1.5h-3.2v-8h3.3c.8,0,1.5.2,2.1.5Zm-.6,6.1c.5-.3.8-.6,1.1-1.1.3-.5.4-1,.4-1.5s-.1-1.1-.4-1.5c-.3-.5-.6-.8-1.1-1.1s-1-.4-1.5-.4h-2.1v6h2.2c.6,0,1.1-.1,1.5-.4Z"/><path class="uuid-46a00c22-8496-486d-993f-9ef467770956" d="m4.7,177.2h10.6v2.8h-7.1v2.5h6.4v2.8h-6.4v2.5h7.3v2.8H4.7v-13.4Z"/><path class="uuid-46a00c22-8496-486d-993f-9ef467770956" d="m18,177.2h3.8l3.9,7.8,3.9-7.8h3.8v13.4h-3.1v-8.5s-3.4,7.1-3.4,7.1h-2.3l-3.4-7.1v8.5h-3.1v-13.4Z"/><path class="uuid-46a00c22-8496-486d-993f-9ef467770956" d="m36.3,177.2h10.6v2.8h-7.1v2.5h6.4v2.8h-6.4v2.5h7.3v2.8h-10.7v-13.4Z"/><path class="uuid-46a00c22-8496-486d-993f-9ef467770956" d="m57.6,190.6l-1.9-3.7h-2.6v3.7h-3.5v-13.4h6c1.8,0,3.1.4,4.1,1.2,1,.8,1.5,2,1.5,3.5s-.2,1.9-.6,2.6c-.4.7-1,1.3-1.8,1.7l2.8,4.4h-4Zm-4.5-6.5h2.5c.7,0,1.3-.2,1.7-.5.4-.4.6-.9.6-1.5s-.2-1.1-.6-1.5c-.4-.4-.9-.5-1.7-.5h-2.5v4.1Z"/><path class="uuid-46a00c22-8496-486d-993f-9ef467770956" d="m72.6,183.8h3v5.3c-.7.5-1.6.9-2.6,1.3-1,.3-2,.5-2.9.5-1.3,0-2.6-.3-3.7-.9-1.1-.6-1.9-1.4-2.6-2.5-.6-1.1-.9-2.2-.9-3.6s.3-2.5,1-3.5c.6-1,1.5-1.9,2.7-2.5s2.4-.9,3.8-.9,2,.2,3,.5c1,.4,1.8.9,2.5,1.5l-2,2.4c-.5-.5-1-.8-1.7-1.1-.6-.3-1.3-.4-1.9-.4s-1.4.2-1.9.5c-.6.3-1,.8-1.4,1.4-.3.6-.5,1.3-.5,2s.2,1.4.5,2c.3.6.8,1.1,1.4,1.4.6.3,1.2.5,1.9.5s1.4-.2,2.3-.6v-3.5Z"/><path class="uuid-46a00c22-8496-486d-993f-9ef467770956" d="m78.4,177.2h10.6v2.8h-7.1v2.5h6.4v2.8h-6.4v2.5h7.3v2.8h-10.7v-13.4Z"/><path class="uuid-46a00c22-8496-486d-993f-9ef467770956" d="m100.8,177.2h3.2v13.4h-3.1l-6.1-8v8h-3.3v-13.4h3.1l6.1,8.1v-8.1Z"/><path class="uuid-46a00c22-8496-486d-993f-9ef467770956" d="m115.1,180.5c-.6-.3-1.2-.5-1.8-.5s-1.3.2-1.8.5-1,.8-1.3,1.4c-.3.6-.5,1.3-.5,2s.2,1.4.5,2c.3.6.8,1.1,1.3,1.4.6.3,1.2.5,1.8.5s1.1-.1,1.7-.4c.6-.3,1.1-.7,1.6-1.1l2,2.2c-.7.8-1.6,1.4-2.6,1.8s-2,.7-3,.7-2.5-.3-3.6-.9c-1.1-.6-1.9-1.4-2.5-2.5-.6-1.1-.9-2.2-.9-3.6s.3-2.5.9-3.5c.6-1,1.5-1.9,2.6-2.5s2.3-.9,3.7-.9,2,.2,2.9.6c1,.4,1.8,1,2.5,1.7l-2,2.4c-.4-.5-.9-1-1.5-1.3Z"/><path class="uuid-46a00c22-8496-486d-993f-9ef467770956" d="m132.5,177.2l-4.8,9.1v4.3h-3.5v-4.2l-4.9-9.2h3.5l3.2,5.7,3.1-5.7h3.5Z"/><path class="uuid-46a00c22-8496-486d-993f-9ef467770956" d="m137.5,177.2h11.5v2.9h-4v10.5h-3.5v-10.5h-4v-2.9Z"/><path class="uuid-46a00c22-8496-486d-993f-9ef467770956" d="m150.8,177.2h10.6v2.8h-7.1v2.5h6.4v2.8h-6.4v2.5h7.3v2.8h-10.7v-13.4Z"/><path class="uuid-46a00c22-8496-486d-993f-9ef467770956" d="m173.9,190.6l-.9-2.4h-5.8l-.9,2.4h-3.6l5.7-13.4h3.6l5.6,13.4h-3.7Zm-5.7-5h3.7l-1.8-4.8-1.9,4.8Z"/><path class="uuid-46a00c22-8496-486d-993f-9ef467770956" d="m179.2,177.2h3.8l3.9,7.8,3.9-7.8h3.8v13.4h-3.1v-8.5s-3.4,7.1-3.4,7.1h-2.3l-3.4-7.1v8.5h-3.1v-13.4Z"/></svg>