<?xml version="1.0" encoding="UTF-8"?><svg id="uuid-8b61c3dd-a344-4cd6-8b60-b4cfec36279b" xmlns="http://www.w3.org/2000/svg" width="198" height="50.9" viewBox="0 0 198 50.9"><defs><style>.uuid-5aa215cb-4422-4ab8-8606-5595a10bc48a{letter-spacing:0em;}.uuid-057f773d-47b6-48bc-9e88-77b8096ca225{font-family:Montserrat-Medium, Montserrat;font-size:10.2px;font-weight:500;}.uuid-057f773d-47b6-48bc-9e88-77b8096ca225,.uuid-c060c129-a29e-4a7f-a1af-e7ecccb7555d{fill:#fff;}.uuid-7f4b082a-dd8c-4e1c-8fb7-53b6490372bf{letter-spacing:0em;}.uuid-6a997791-ccc4-48ff-abca-0a694559df6a{letter-spacing:0em;}.uuid-8724f4b2-4cb3-48df-bdf7-54be490a6fbe{fill:#a40931;}.uuid-8724f4b2-4cb3-48df-bdf7-54be490a6fbe,.uuid-8a524748-dbb7-434d-b8b9-2e4c54d35d0d,.uuid-c9e5d70c-e2d7-4338-9a97-58e4b8a7102c,.uuid-c060c129-a29e-4a7f-a1af-e7ecccb7555d,.uuid-01f7976a-3115-4b35-9d80-eea7c6ca08b5{stroke-width:0px;}.uuid-8a524748-dbb7-434d-b8b9-2e4c54d35d0d{fill:#323e48;}.uuid-c9e5d70c-e2d7-4338-9a97-58e4b8a7102c{fill:#8e1537;}.uuid-01f7976a-3115-4b35-9d80-eea7c6ca08b5{fill:#e9eaeb;}</style></defs><path class="uuid-8a524748-dbb7-434d-b8b9-2e4c54d35d0d" d="m150,39.6H16.5c-4.6,0-8.4-3.1-8.4-7v-14c0-3.9,3.7-7,8.4-7h133.5c2.2,0,4,1.5,4,3.3v21.4c0,1.8-1.8,3.3-4,3.3Z"/><text class="uuid-057f773d-47b6-48bc-9e88-77b8096ca225" transform="translate(15.4 29.2)"><tspan class="uuid-7f4b082a-dd8c-4e1c-8fb7-53b6490372bf" x="0" y="0">SUBSCRIBE </tspan><tspan class="uuid-5aa215cb-4422-4ab8-8606-5595a10bc48a" x="66.5" y="0">T</tspan><tspan class="uuid-7f4b082a-dd8c-4e1c-8fb7-53b6490372bf" x="72.6" y="0">O N</tspan><tspan class="uuid-5aa215cb-4422-4ab8-8606-5595a10bc48a" x="93" y="0">E</tspan><tspan class="uuid-6a997791-ccc4-48ff-abca-0a694559df6a" x="100.1" y="0">W</tspan><tspan class="uuid-7f4b082a-dd8c-4e1c-8fb7-53b6490372bf" x="111.6" y="0">S</tspan></text><circle class="uuid-c9e5d70c-e2d7-4338-9a97-58e4b8a7102c" cx="166.5" cy="25.4" r="19.4"/><circle class="uuid-01f7976a-3115-4b35-9d80-eea7c6ca08b5" cx="166.5" cy="25.4" r="23.3"/><circle class="uuid-8724f4b2-4cb3-48df-bdf7-54be490a6fbe" cx="166.5" cy="25.4" r="19.4"/><polygon class="uuid-c060c129-a29e-4a7f-a1af-e7ecccb7555d" points="164.2 35.3 164.2 27.8 156.6 27.8 156.6 23.1 164.2 23.1 164.2 15.6 168.8 15.6 168.8 23.1 176.3 23.1 176.3 27.8 168.8 27.8 168.8 35.3 164.2 35.3"/></svg>