<?xml version="1.0" encoding="UTF-8"?><svg id="uuid-0be8c718-e47a-48ad-a723-99032e624905" xmlns="http://www.w3.org/2000/svg" width="25" height="25" viewBox="0 0 25 25"><defs><style>.uuid-0e938ee7-5714-460d-8ef9-1122d7c79cd6{fill:#ee7623;}.uuid-0e938ee7-5714-460d-8ef9-1122d7c79cd6,.uuid-9b26348c-428e-47f9-89d0-b57780734cb6{stroke-width:0px;}.uuid-9b26348c-428e-47f9-89d0-b57780734cb6{fill:#fff;}</style></defs><circle class="uuid-0e938ee7-5714-460d-8ef9-1122d7c79cd6" cx="12.5" cy="12.5" r="11.2"/><path class="uuid-9b26348c-428e-47f9-89d0-b57780734cb6" d="m17.8,15.8l-1.2-.8-1.1-.7c-.2-.1-.5,0-.6.1l-.7.9c-.1.2-.4.2-.6.1-.5-.3-1-.5-2.2-1.7-1.2-1.2-1.4-1.7-1.7-2.2-.1-.2,0-.5.1-.6l.9-.7c.2-.2.2-.4.1-.6l-.7-1.1-.8-1.3c-.1-.2-.4-.3-.6-.1l-1,.6c-.3.2-.5.4-.5.7-.3,1-.3,3.1,3.1,6.5,3.4,3.4,5.5,3.4,6.5,3.1.3,0,.5-.3.7-.5l.6-1c.1-.2,0-.5-.1-.6Z"/></svg>