<?xml version="1.0" encoding="UTF-8"?><svg id="uuid-73cbacf9-8037-4d85-bb7d-ac0fcd4a659c" xmlns="http://www.w3.org/2000/svg" width="25" height="25" viewBox="0 0 25 25"><defs><style>.uuid-89585e13-a9f7-453f-b5e9-e6f6f7e9e601{fill:#ee7623;}.uuid-89585e13-a9f7-453f-b5e9-e6f6f7e9e601,.uuid-628585e8-5aa7-4ee6-8cdc-7a070440cfc9{stroke-width:0px;}.uuid-628585e8-5aa7-4ee6-8cdc-7a070440cfc9{fill:#fff;}</style></defs><circle class="uuid-89585e13-a9f7-453f-b5e9-e6f6f7e9e601" cx="12.5" cy="12.5" r="11.2"/><path class="uuid-628585e8-5aa7-4ee6-8cdc-7a070440cfc9" d="m17.7,7.3c-1.1-1.1-2.9-1.1-4,0l-2.4,2.4c-1.1,1.1-1,3,0,4,.2.2.4.3.6.4l.4-.4c.3-.3.2-.6.2-.9,0,0-.1,0-.2-.1-.5-.5-.6-1.4,0-2s2.3-2.3,2.4-2.4c.6-.6,1.4-.6,2,0,.6.6.6,1.4,0,2l-1.6,1.6c0,.3.3.8.2,1.8,0,0,0,0,0,0l2.4-2.4c1.1-1.1,1.1-2.9,0-4Z"/><path class="uuid-628585e8-5aa7-4ee6-8cdc-7a070440cfc9" d="m13.8,11.2c-.2-.2-.4-.3-.6-.4l-.4.4c-.3.3-.2.6-.2.9,0,0,.1,0,.2.1.5.5.6,1.4,0,2s-2.5,2.5-2.5,2.5c-.6.6-1.4.6-2,0s-.6-1.4,0-2l1.7-1.7c0-.3-.3-.8-.2-1.8,0,0,0,0,0,0l-2.5,2.5c-1.1,1.1-1.1,2.9,0,4,1.1,1.1,2.9,1.1,4,0l2.5-2.5c1.1-1.1,1.1-2.9,0-4Z"/></svg>